<svg width="167" height="167" viewBox="0 0 167 167" fill="none" xmlns="http://www.w3.org/2000/svg">
<rect width="167" height="167" rx="4" fill="#F1F2F6"/>
<path d="M83.5 63.5V78.5M91 71H76" stroke="#E76B39" stroke-width="2" stroke-linecap="round" stroke-linejoin="round"/>
<path d="M45.124 106.126C44.4707 106.126 43.892 106.042 43.388 105.874C42.8933 105.697 42.478 105.44 42.142 105.104C41.806 104.759 41.5493 104.334 41.372 103.83C41.204 103.317 41.12 102.724 41.12 102.052V96.69C41.12 96.466 41.176 96.3027 41.288 96.2C41.4 96.088 41.5587 96.032 41.764 96.032C41.9787 96.032 42.142 96.088 42.254 96.2C42.366 96.3027 42.422 96.466 42.422 96.69V102.01C42.422 103.009 42.6507 103.755 43.108 104.25C43.5653 104.735 44.2373 104.978 45.124 104.978C46.0107 104.978 46.6827 104.735 47.14 104.25C47.5973 103.755 47.826 103.009 47.826 102.01V96.69C47.826 96.466 47.882 96.3027 47.994 96.2C48.106 96.088 48.2647 96.032 48.47 96.032C48.6753 96.032 48.834 96.088 48.946 96.2C49.058 96.3027 49.114 96.466 49.114 96.69V102.052C49.114 102.939 48.96 103.685 48.652 104.292C48.3533 104.899 47.9053 105.356 47.308 105.664C46.72 105.972 45.992 106.126 45.124 106.126ZM51.8922 108.618C51.6962 108.618 51.5422 108.562 51.4302 108.45C51.3182 108.338 51.2622 108.179 51.2622 107.974V99.728C51.2622 99.5133 51.3182 99.3547 51.4302 99.252C51.5422 99.14 51.6962 99.084 51.8922 99.084C52.0976 99.084 52.2516 99.14 52.3542 99.252C52.4662 99.3547 52.5222 99.5133 52.5222 99.728V101.002L52.3682 100.75C52.5176 100.237 52.8116 99.826 53.2502 99.518C53.6889 99.21 54.2162 99.056 54.8322 99.056C55.4389 99.056 55.9662 99.2007 56.4142 99.49C56.8622 99.77 57.2122 100.176 57.4642 100.708C57.7162 101.231 57.8422 101.856 57.8422 102.584C57.8422 103.303 57.7162 103.933 57.4642 104.474C57.2216 105.006 56.8716 105.417 56.4142 105.706C55.9662 105.986 55.4389 106.126 54.8322 106.126C54.2256 106.126 53.7029 105.972 53.2642 105.664C52.8256 105.356 52.5316 104.95 52.3822 104.446H52.5362V107.974C52.5362 108.179 52.4802 108.338 52.3682 108.45C52.2562 108.562 52.0976 108.618 51.8922 108.618ZM54.5382 105.118C54.9396 105.118 55.2896 105.02 55.5882 104.824C55.8962 104.628 56.1342 104.343 56.3022 103.97C56.4702 103.597 56.5542 103.135 56.5542 102.584C56.5542 101.763 56.3722 101.137 56.0082 100.708C55.6442 100.279 55.1542 100.064 54.5382 100.064C54.1276 100.064 53.7682 100.162 53.4602 100.358C53.1616 100.545 52.9282 100.825 52.7602 101.198C52.6016 101.571 52.5222 102.033 52.5222 102.584C52.5222 103.405 52.7042 104.035 53.0682 104.474C53.4322 104.903 53.9222 105.118 54.5382 105.118ZM61.621 106.126C60.921 106.126 60.389 105.921 60.025 105.51C59.661 105.09 59.479 104.488 59.479 103.704V96.676C59.479 96.4613 59.535 96.3027 59.647 96.2C59.759 96.088 59.913 96.032 60.109 96.032C60.3144 96.032 60.473 96.088 60.585 96.2C60.697 96.3027 60.753 96.4613 60.753 96.676V103.606C60.753 104.091 60.851 104.455 61.047 104.698C61.2524 104.931 61.5417 105.048 61.915 105.048C61.999 105.048 62.0737 105.048 62.139 105.048C62.2044 105.039 62.2697 105.029 62.335 105.02C62.4377 105.011 62.5124 105.039 62.559 105.104C62.6057 105.169 62.629 105.3 62.629 105.496C62.629 105.673 62.587 105.813 62.503 105.916C62.4284 106.009 62.3024 106.07 62.125 106.098C62.041 106.107 61.957 106.112 61.873 106.112C61.789 106.121 61.705 106.126 61.621 106.126ZM66.5196 106.126C65.8476 106.126 65.2643 105.981 64.7696 105.692C64.2749 105.403 63.8923 104.992 63.6216 104.46C63.3509 103.928 63.2156 103.303 63.2156 102.584C63.2156 102.043 63.2903 101.557 63.4396 101.128C63.5983 100.689 63.8223 100.316 64.1116 100.008C64.4009 99.7 64.7463 99.4667 65.1476 99.308C65.5583 99.14 66.0156 99.056 66.5196 99.056C67.1916 99.056 67.7749 99.2007 68.2696 99.49C68.7643 99.7793 69.1469 100.19 69.4176 100.722C69.6883 101.245 69.8236 101.865 69.8236 102.584C69.8236 103.125 69.7443 103.615 69.5856 104.054C69.4363 104.493 69.2169 104.866 68.9276 105.174C68.6383 105.482 68.2883 105.72 67.8776 105.888C67.4763 106.047 67.0236 106.126 66.5196 106.126ZM66.5196 105.118C66.9303 105.118 67.2849 105.02 67.5836 104.824C67.8916 104.628 68.1249 104.343 68.2836 103.97C68.4516 103.597 68.5356 103.135 68.5356 102.584C68.5356 101.763 68.3536 101.137 67.9896 100.708C67.6256 100.279 67.1356 100.064 66.5196 100.064C66.1183 100.064 65.7636 100.162 65.4556 100.358C65.1569 100.545 64.9236 100.825 64.7556 101.198C64.5876 101.571 64.5036 102.033 64.5036 102.584C64.5036 103.405 64.6856 104.035 65.0496 104.474C65.4229 104.903 65.9129 105.118 66.5196 105.118ZM73.6256 106.126C73.1589 106.126 72.7343 106.033 72.3516 105.846C71.9783 105.659 71.6843 105.407 71.4696 105.09C71.2643 104.773 71.1616 104.418 71.1616 104.026C71.1616 103.522 71.2876 103.125 71.5396 102.836C71.7916 102.547 72.2163 102.341 72.8136 102.22C73.4109 102.089 74.2136 102.024 75.2216 102.024H75.8796V102.836H75.2496C74.5309 102.836 73.9616 102.869 73.5416 102.934C73.1309 102.999 72.8416 103.116 72.6736 103.284C72.5056 103.443 72.4216 103.667 72.4216 103.956C72.4216 104.32 72.5476 104.619 72.7996 104.852C73.0609 105.085 73.4156 105.202 73.8636 105.202C74.2183 105.202 74.5309 105.118 74.8016 104.95C75.0723 104.773 75.2869 104.539 75.4456 104.25C75.6043 103.951 75.6836 103.611 75.6836 103.228V101.618C75.6836 101.067 75.5716 100.671 75.3476 100.428C75.1236 100.176 74.7456 100.05 74.2136 100.05C73.9056 100.05 73.5883 100.092 73.2616 100.176C72.9349 100.26 72.5943 100.391 72.2396 100.568C72.0996 100.633 71.9783 100.657 71.8756 100.638C71.7729 100.61 71.6889 100.554 71.6236 100.47C71.5676 100.377 71.5349 100.279 71.5256 100.176C71.5256 100.064 71.5489 99.9567 71.5956 99.854C71.6516 99.7513 71.7449 99.6767 71.8756 99.63C72.2863 99.4247 72.6923 99.28 73.0936 99.196C73.5043 99.1027 73.8869 99.056 74.2416 99.056C74.8483 99.056 75.3476 99.154 75.7396 99.35C76.1316 99.5367 76.4256 99.8307 76.6216 100.232C76.8176 100.624 76.9156 101.128 76.9156 101.744V105.44C76.9156 105.655 76.8643 105.818 76.7616 105.93C76.6589 106.042 76.5096 106.098 76.3136 106.098C76.1269 106.098 75.9776 106.042 75.8656 105.93C75.7629 105.818 75.7116 105.655 75.7116 105.44V104.446H75.8376C75.7629 104.791 75.6229 105.09 75.4176 105.342C75.2123 105.594 74.9556 105.79 74.6476 105.93C74.3489 106.061 74.0083 106.126 73.6256 106.126ZM81.5244 106.126C80.9271 106.126 80.3998 105.986 79.9424 105.706C79.4944 105.417 79.1444 105.006 78.8924 104.474C78.6404 103.933 78.5144 103.303 78.5144 102.584C78.5144 101.856 78.6358 101.231 78.8784 100.708C79.1304 100.176 79.4804 99.77 79.9284 99.49C80.3858 99.2007 80.9178 99.056 81.5244 99.056C82.1311 99.056 82.6538 99.21 83.0924 99.518C83.5311 99.8167 83.8251 100.218 83.9744 100.722H83.8204V96.676C83.8204 96.4613 83.8718 96.3027 83.9744 96.2C84.0864 96.088 84.2451 96.032 84.4504 96.032C84.6558 96.032 84.8144 96.088 84.9264 96.2C85.0384 96.3027 85.0944 96.4613 85.0944 96.676V105.44C85.0944 105.655 85.0384 105.818 84.9264 105.93C84.8144 106.042 84.6558 106.098 84.4504 106.098C84.2544 106.098 84.1004 106.042 83.9884 105.93C83.8764 105.818 83.8204 105.655 83.8204 105.44V104.166L83.9744 104.418C83.8344 104.941 83.5404 105.356 83.0924 105.664C82.6538 105.972 82.1311 106.126 81.5244 106.126ZM81.8184 105.118C82.2291 105.118 82.5838 105.02 82.8824 104.824C83.1904 104.628 83.4238 104.343 83.5824 103.97C83.7504 103.597 83.8344 103.135 83.8344 102.584C83.8344 101.763 83.6524 101.137 83.2884 100.708C82.9244 100.279 82.4344 100.064 81.8184 100.064C81.4171 100.064 81.0624 100.162 80.7544 100.358C80.4558 100.545 80.2224 100.825 80.0544 101.198C79.8864 101.571 79.8024 102.033 79.8024 102.584C79.8024 103.405 79.9844 104.035 80.3484 104.474C80.7218 104.903 81.2118 105.118 81.8184 105.118ZM91.4176 108.618C91.2216 108.618 91.0676 108.562 90.9556 108.45C90.8436 108.338 90.7876 108.179 90.7876 107.974V99.728C90.7876 99.5133 90.8436 99.3547 90.9556 99.252C91.0676 99.14 91.2216 99.084 91.4176 99.084C91.623 99.084 91.777 99.14 91.8796 99.252C91.9916 99.3547 92.0476 99.5133 92.0476 99.728V101.002L91.8936 100.75C92.043 100.237 92.337 99.826 92.7756 99.518C93.2143 99.21 93.7416 99.056 94.3576 99.056C94.9643 99.056 95.4916 99.2007 95.9396 99.49C96.3876 99.77 96.7376 100.176 96.9896 100.708C97.2416 101.231 97.3676 101.856 97.3676 102.584C97.3676 103.303 97.2416 103.933 96.9896 104.474C96.747 105.006 96.397 105.417 95.9396 105.706C95.4916 105.986 94.9643 106.126 94.3576 106.126C93.751 106.126 93.2283 105.972 92.7896 105.664C92.351 105.356 92.057 104.95 91.9076 104.446H92.0616V107.974C92.0616 108.179 92.0056 108.338 91.8936 108.45C91.7816 108.562 91.623 108.618 91.4176 108.618ZM94.0636 105.118C94.465 105.118 94.815 105.02 95.1136 104.824C95.4216 104.628 95.6596 104.343 95.8276 103.97C95.9956 103.597 96.0796 103.135 96.0796 102.584C96.0796 101.763 95.8976 101.137 95.5336 100.708C95.1696 100.279 94.6796 100.064 94.0636 100.064C93.653 100.064 93.2936 100.162 92.9856 100.358C92.687 100.545 92.4536 100.825 92.2856 101.198C92.127 101.571 92.0476 102.033 92.0476 102.584C92.0476 103.405 92.2296 104.035 92.5936 104.474C92.9576 104.903 93.4476 105.118 94.0636 105.118ZM99.6344 106.098C99.4384 106.098 99.2844 106.042 99.1724 105.93C99.0604 105.818 99.0044 105.655 99.0044 105.44V96.676C99.0044 96.4613 99.0604 96.3027 99.1724 96.2C99.2844 96.088 99.4384 96.032 99.6344 96.032C99.8398 96.032 99.9984 96.088 100.11 96.2C100.222 96.3027 100.278 96.4613 100.278 96.676V100.666H100.096C100.292 100.134 100.61 99.7327 101.048 99.462C101.496 99.1913 102.005 99.056 102.574 99.056C103.125 99.056 103.578 99.1587 103.932 99.364C104.287 99.56 104.553 99.8587 104.73 100.26C104.908 100.661 104.996 101.165 104.996 101.772V105.44C104.996 105.655 104.94 105.818 104.828 105.93C104.726 106.042 104.572 106.098 104.366 106.098C104.161 106.098 104.002 106.042 103.89 105.93C103.778 105.818 103.722 105.655 103.722 105.44V101.842C103.722 101.235 103.606 100.792 103.372 100.512C103.139 100.232 102.766 100.092 102.252 100.092C101.655 100.092 101.174 100.279 100.81 100.652C100.456 101.016 100.278 101.511 100.278 102.136V105.44C100.278 105.879 100.064 106.098 99.6344 106.098ZM109.914 106.126C109.242 106.126 108.659 105.981 108.164 105.692C107.669 105.403 107.287 104.992 107.016 104.46C106.745 103.928 106.61 103.303 106.61 102.584C106.61 102.043 106.685 101.557 106.834 101.128C106.993 100.689 107.217 100.316 107.506 100.008C107.795 99.7 108.141 99.4667 108.542 99.308C108.953 99.14 109.41 99.056 109.914 99.056C110.586 99.056 111.169 99.2007 111.664 99.49C112.159 99.7793 112.541 100.19 112.812 100.722C113.083 101.245 113.218 101.865 113.218 102.584C113.218 103.125 113.139 103.615 112.98 104.054C112.831 104.493 112.611 104.866 112.322 105.174C112.033 105.482 111.683 105.72 111.272 105.888C110.871 106.047 110.418 106.126 109.914 106.126ZM109.914 105.118C110.325 105.118 110.679 105.02 110.978 104.824C111.286 104.628 111.519 104.343 111.678 103.97C111.846 103.597 111.93 103.135 111.93 102.584C111.93 101.763 111.748 101.137 111.384 100.708C111.02 100.279 110.53 100.064 109.914 100.064C109.513 100.064 109.158 100.162 108.85 100.358C108.551 100.545 108.318 100.825 108.15 101.198C107.982 101.571 107.898 102.033 107.898 102.584C107.898 103.405 108.08 104.035 108.444 104.474C108.817 104.903 109.307 105.118 109.914 105.118ZM117.61 106.126C117.059 106.126 116.597 106.028 116.224 105.832C115.86 105.636 115.584 105.351 115.398 104.978C115.22 104.605 115.132 104.147 115.132 103.606V100.162H114.236C114.068 100.162 113.937 100.12 113.844 100.036C113.75 99.9427 113.704 99.8213 113.704 99.672C113.704 99.5133 113.75 99.392 113.844 99.308C113.937 99.224 114.068 99.182 114.236 99.182H115.132V97.656C115.132 97.4413 115.188 97.2827 115.3 97.18C115.412 97.068 115.57 97.012 115.776 97.012C115.981 97.012 116.135 97.068 116.238 97.18C116.35 97.2827 116.406 97.4413 116.406 97.656V99.182H118.1C118.277 99.182 118.412 99.224 118.506 99.308C118.599 99.392 118.646 99.5133 118.646 99.672C118.646 99.8213 118.599 99.9427 118.506 100.036C118.412 100.12 118.277 100.162 118.1 100.162H116.406V103.494C116.406 104.007 116.513 104.395 116.728 104.656C116.942 104.917 117.297 105.048 117.792 105.048C117.969 105.048 118.118 105.034 118.24 105.006C118.361 104.969 118.468 104.95 118.562 104.95C118.646 104.941 118.716 104.969 118.772 105.034C118.837 105.099 118.87 105.221 118.87 105.398C118.87 105.529 118.846 105.65 118.8 105.762C118.762 105.865 118.683 105.935 118.562 105.972C118.45 106.009 118.3 106.042 118.114 106.07C117.927 106.107 117.759 106.126 117.61 106.126ZM122.629 106.126C121.957 106.126 121.374 105.981 120.879 105.692C120.384 105.403 120.002 104.992 119.731 104.46C119.46 103.928 119.325 103.303 119.325 102.584C119.325 102.043 119.4 101.557 119.549 101.128C119.708 100.689 119.932 100.316 120.221 100.008C120.51 99.7 120.856 99.4667 121.257 99.308C121.668 99.14 122.125 99.056 122.629 99.056C123.301 99.056 123.884 99.2007 124.379 99.49C124.874 99.7793 125.256 100.19 125.527 100.722C125.798 101.245 125.933 101.865 125.933 102.584C125.933 103.125 125.854 103.615 125.695 104.054C125.546 104.493 125.326 104.866 125.037 105.174C124.748 105.482 124.398 105.72 123.987 105.888C123.586 106.047 123.133 106.126 122.629 106.126ZM122.629 105.118C123.04 105.118 123.394 105.02 123.693 104.824C124.001 104.628 124.234 104.343 124.393 103.97C124.561 103.597 124.645 103.135 124.645 102.584C124.645 101.763 124.463 101.137 124.099 100.708C123.735 100.279 123.245 100.064 122.629 100.064C122.228 100.064 121.873 100.162 121.565 100.358C121.266 100.545 121.033 100.825 120.865 101.198C120.697 101.571 120.613 102.033 120.613 102.584C120.613 103.405 120.795 104.035 121.159 104.474C121.532 104.903 122.022 105.118 122.629 105.118Z" fill="#E76B39"/>
</svg>
