<svg width="24" height="24" viewBox="0 0 24 24" fill="none" xmlns="http://www.w3.org/2000/svg">
<path d="M16.2359 14.1371C15.1066 13.1739 13.6317 12.5909 12.0161 12.5909C10.4005 12.5909 8.92559 13.1739 7.79429 14.1391C7.76304 14.1667 7.74392 14.2051 7.74092 14.2462C7.73793 14.2873 7.75129 14.328 7.77821 14.3597L8.50161 15.2047C8.55988 15.2717 8.66236 15.2795 8.73068 15.2224C9.60679 14.4661 10.7562 14.0091 12.0161 14.0091C13.276 14.0091 14.4254 14.4661 15.3015 15.2205C15.3698 15.2776 15.4723 15.2697 15.5306 15.2027L16.254 14.3577C16.3102 14.2927 16.3022 14.1942 16.2359 14.1371ZM18.595 11.3776C16.8126 9.92197 14.5198 9.04545 12.0161 9.04545C9.51235 9.04545 7.21959 9.92197 5.43522 11.3776C5.40257 11.4046 5.38214 11.4431 5.37838 11.4848C5.37461 11.5265 5.38782 11.568 5.41512 11.6002L6.13852 12.4452C6.19478 12.5121 6.29726 12.52 6.36357 12.4648C7.89677 11.2161 9.86802 10.4636 12.0161 10.4636C14.1642 10.4636 16.1354 11.2161 17.6666 12.4648C17.7349 12.52 17.8354 12.5121 17.8917 12.4452L18.6151 11.6002C18.6713 11.5332 18.6633 11.4327 18.595 11.3776ZM20.94 8.6397C18.5005 6.67788 15.3779 5.5 11.9759 5.5C8.59605 5.5 5.49349 6.66212 3.06007 8.6003C3.04335 8.61347 3.02949 8.62978 3.0193 8.64828C3.00911 8.66678 3.0028 8.68709 3.00074 8.70801C2.99868 8.72893 3.00092 8.75005 3.00731 8.77012C3.0137 8.79018 3.02413 8.80879 3.03797 8.82485L3.76136 9.66985C3.81763 9.73485 3.9181 9.7447 3.98441 9.69151C6.16866 7.95621 8.9477 6.91818 11.9759 6.91818C15.0262 6.91818 17.8233 7.97197 20.0136 9.72894C20.0819 9.78409 20.1824 9.77424 20.2387 9.70727L20.9621 8.86227C21.0203 8.7953 21.0103 8.69485 20.94 8.6397ZM10.71 17.2394C10.71 17.5737 10.8455 17.8944 11.0866 18.1308C11.3278 18.3672 11.6549 18.5 11.996 18.5C12.3371 18.5 12.6642 18.3672 12.9054 18.1308C13.1465 17.8944 13.282 17.5737 13.282 17.2394C13.282 16.9051 13.1465 16.5844 12.9054 16.348C12.6642 16.1116 12.3371 15.9788 11.996 15.9788C11.6549 15.9788 11.3278 16.1116 11.0866 16.348C10.8455 16.5844 10.71 16.9051 10.71 17.2394Z" fill="black"/>
</svg>
