<svg width="24" height="24" viewBox="0 0 24 24" fill="none" xmlns="http://www.w3.org/2000/svg">
<path d="M15.6548 20C15.8672 20.0012 16.0778 19.9601 16.2742 19.8791C16.4706 19.798 16.6489 19.6787 16.7987 19.528L18.9664 17.3603C19.1154 17.2104 19.199 17.0076 19.199 16.7963C19.199 16.585 19.1154 16.3822 18.9664 16.2324L15.7668 13.0327C15.6169 12.8837 15.4142 12.8001 15.2028 12.8001C14.9915 12.8001 14.7888 12.8837 14.6389 13.0327L13.359 14.3046C12.4729 14.0683 11.6523 13.6334 10.9593 13.0327C10.3602 12.3386 9.9255 11.5184 9.68742 10.633L10.9593 9.35311C11.1083 9.20323 11.1919 9.00049 11.1919 8.78917C11.1919 8.57784 11.1083 8.3751 10.9593 8.22523L7.75963 5.02557C7.60975 4.87658 7.40701 4.79296 7.19569 4.79296C6.98436 4.79296 6.78162 4.87658 6.63175 5.02557L4.47198 7.20133C4.3213 7.35111 4.20196 7.5294 4.12093 7.7258C4.0399 7.92219 3.9988 8.13276 4.00003 8.34521C4.0726 11.4187 5.30075 14.352 7.43966 16.5603C9.648 18.6993 12.5813 19.9274 15.6548 20ZM7.19969 6.72939L9.27147 8.80116L8.23958 9.83305C8.14184 9.9246 8.06866 10.0392 8.02673 10.1664C7.9848 10.2936 7.97547 10.4293 7.9996 10.561C8.29858 11.8971 8.93159 13.1356 9.83941 14.1606C10.8636 15.0696 12.1024 15.7027 13.439 16.0004C13.5688 16.0275 13.7032 16.022 13.8302 15.9843C13.9573 15.9466 14.073 15.8779 14.1669 15.7844L15.1988 14.7285L17.2706 16.8003L15.6708 18.4001C13.0181 18.3318 10.4869 17.2732 8.57554 15.4325C6.73007 13.5203 5.66834 10.9858 5.59986 8.32921L7.19969 6.72939ZM18.3985 11.2009H19.9983C20.0191 10.2498 19.847 9.30436 19.4926 8.42153C19.1381 7.5387 18.6086 6.73678 17.9359 6.06409C17.2632 5.3914 16.4613 4.86188 15.5785 4.50742C14.6956 4.15297 13.7502 3.98093 12.7991 4.00168V5.60151C13.5413 5.57583 14.2809 5.7031 14.9719 5.97541C15.6629 6.24772 16.2904 6.65925 16.8156 7.18441C17.3407 7.70957 17.7523 8.33714 18.0246 9.0281C18.2969 9.71907 18.4242 10.4587 18.3985 11.2009Z" fill="black"/>
<path d="M12.5 9.1C14.18 9.1 14.9 9.82 14.9 11.5H16.5C16.5 8.924 15.076 7.5 12.5 7.5V9.1Z" fill="black"/>
</svg>
