<svg width="24" height="24" viewBox="0 0 24 24" fill="none" xmlns="http://www.w3.org/2000/svg">
<path d="M19.0296 9.66056C18.9296 9.68207 17.5872 9.9936 15.8672 11.074C15.6088 9.82548 14.844 7.48782 12.5808 5.11031L12 4.5L11.4192 5.11111C9.148 7.49738 8.3864 9.84142 8.1304 11.0979C6.404 9.99918 5.072 9.68366 4.9744 9.66136L4 9.44464V10.439C4 16.2473 7.14 20 12 20C16.7848 20 20 16.1581 20 10.439V9.44942L19.0296 9.66056ZM9.5992 12.0628C9.6008 12.0365 9.7208 9.59283 12 6.85838C14.2512 9.56734 14.3992 12.0325 14.4 12.0325V12.1321C13.5028 12.8746 12.6948 13.7178 11.992 14.645C11.2872 13.7342 10.4848 12.9025 9.5992 12.1647V12.0628ZM12 18.4065C7.7472 18.4065 5.9608 15.0633 5.6504 11.5831C6.9744 12.1552 9.3432 13.516 11.336 16.4616L12.0088 17.4568L12.6688 16.4529C14.6096 13.4985 17.0088 12.1416 18.3456 11.5752C18.0272 14.9438 16.2432 18.4065 12 18.4065Z" fill="black"/>
</svg>
