<svg width="24" height="24" viewBox="0 0 24 24" fill="none" xmlns="http://www.w3.org/2000/svg">
<path d="M21.0508 12.0532L15.8041 10.1081L13.6109 7.26782C13.4202 7.02733 13.18 6.83365 12.9077 6.70084C12.6354 6.56803 12.3379 6.49943 12.0366 6.5H6.61079C6.27894 6.49989 5.95211 6.58351 5.65879 6.74357C5.36546 6.90363 5.11455 7.13528 4.92793 7.41831L3.08764 10.2061C2.70435 10.7863 2.49956 11.4722 2.5 12.1743V17.6988C2.5 17.8844 2.57149 18.0625 2.69875 18.1937C2.82601 18.325 2.9986 18.3987 3.17857 18.3987H4.63207C4.77968 18.9994 5.11727 19.5322 5.59142 19.9128C6.06557 20.2934 6.64921 20.5 7.25 20.5C7.85079 20.5 8.43443 20.2934 8.90858 19.9128C9.38273 19.5322 9.72032 18.9994 9.86793 18.3987H14.1321C14.2797 18.9994 14.6173 19.5322 15.0914 19.9128C15.5656 20.2934 16.1492 20.5 16.75 20.5C17.3508 20.5 17.9344 20.2934 18.4086 19.9128C18.8827 19.5322 19.2203 18.9994 19.3679 18.3987H20.8214C21.0014 18.3987 21.174 18.325 21.3013 18.1937C21.4285 18.0625 21.5 17.8844 21.5 17.6988V12.7118C21.5 12.5677 21.4568 12.4271 21.3764 12.3092C21.296 12.1913 21.1823 12.1019 21.0508 12.0532ZM7.25 19.0987C6.98158 19.0987 6.71919 19.0166 6.49601 18.8627C6.27283 18.7089 6.09888 18.4903 5.99616 18.2345C5.89345 17.9787 5.86657 17.6973 5.91893 17.4257C5.9713 17.1542 6.10056 16.9047 6.29036 16.709C6.48016 16.5132 6.72198 16.3799 6.98524 16.3259C7.2485 16.2718 7.52137 16.2996 7.76936 16.4055C8.01734 16.5115 8.2293 16.6909 8.37842 16.9211C8.52755 17.1513 8.60714 17.4219 8.60714 17.6988C8.60661 18.0699 8.46345 18.4256 8.20905 18.688C7.95465 18.9504 7.60977 19.0981 7.25 19.0987ZM16.75 19.0987C16.4816 19.0987 16.2192 19.0166 15.996 18.8627C15.7728 18.7089 15.5989 18.4903 15.4962 18.2345C15.3934 17.9787 15.3666 17.6973 15.4189 17.4257C15.4713 17.1542 15.6006 16.9047 15.7904 16.709C15.9802 16.5132 16.222 16.3799 16.4852 16.3259C16.7485 16.2718 17.0214 16.2996 17.2694 16.4055C17.5173 16.5115 17.7293 16.6909 17.8784 16.9211C18.0275 17.1513 18.1071 17.4219 18.1071 17.6988C18.1068 18.07 17.9637 18.4258 17.7092 18.6882C17.4548 18.9507 17.1098 19.0983 16.75 19.0987ZM20.1429 16.9989H19.3679C19.2203 16.3982 18.8827 15.8654 18.4086 15.4848C17.9344 15.1043 17.3508 14.8976 16.75 14.8976C16.1492 14.8976 15.5656 15.1043 15.0914 15.4848C14.6173 15.8654 14.2797 16.3982 14.1321 16.9989H9.86793C9.72032 16.3982 9.38273 15.8654 8.90858 15.4848C8.43443 15.1043 7.85079 14.8976 7.25 14.8976C6.64921 14.8976 6.06557 15.1043 5.59142 15.4848C5.11727 15.8654 4.77968 16.3982 4.63207 16.9989H3.85714V12.1743C3.85707 11.7529 3.98003 11.3412 4.21 10.9928L6.04961 8.20642C6.11181 8.11199 6.19547 8.03468 6.29328 7.98125C6.3911 7.92781 6.5001 7.89987 6.61079 7.89985H12.0366C12.1354 7.89945 12.233 7.92144 12.3226 7.96425C12.4122 8.00707 12.4915 8.06967 12.5551 8.14763L14.8622 11.1356C14.9407 11.2372 15.045 11.3143 15.1635 11.3582L20.1429 13.2039V16.9989Z" fill="black"/>
</svg>
