<svg width="24" height="24" viewBox="0 0 24 24" fill="none" xmlns="http://www.w3.org/2000/svg">
<path d="M6.9091 11.2851H17.0909V9.85659H6.9091V11.2851ZM6.9091 12.7135V13.7849C6.90909 14.3007 7.01255 14.8116 7.21357 15.2882C7.41459 15.7648 7.70923 16.1978 8.08066 16.5626C8.45209 16.9274 8.89305 17.2167 9.37835 17.4141C9.86366 17.6116 10.3838 17.7132 10.9091 17.7132H13.0909C13.6162 17.7132 14.1363 17.6116 14.6216 17.4141C15.1069 17.2167 15.5479 16.9274 15.9193 16.5626C16.2908 16.1978 16.5854 15.7648 16.7864 15.2882C16.9874 14.8116 17.0909 14.3007 17.0909 13.7849V12.7135H6.9091ZM6.18181 8.42811H17.8182C17.9137 8.42811 18.0083 8.44658 18.0965 8.48248C18.1847 8.51837 18.2649 8.57099 18.3325 8.63731C18.4 8.70363 18.4536 8.78237 18.4901 8.86903C18.5267 8.95569 18.5455 9.04856 18.5455 9.14236V13.7849C18.5455 15.2056 17.9708 16.5681 16.9479 17.5727C15.9249 18.5773 14.5375 19.1416 13.0909 19.1416H10.9091C9.46245 19.1416 8.07507 18.5773 7.05214 17.5727C6.02922 16.5681 5.45454 15.2056 5.45454 13.7849V9.14236C5.45454 9.04856 5.47335 8.95569 5.5099 8.86903C5.54644 8.78237 5.60001 8.70363 5.66755 8.63731C5.73508 8.57099 5.81525 8.51837 5.90349 8.48248C5.99173 8.44658 6.0863 8.42811 6.18181 8.42811ZM12 2C12.0955 2 12.1901 2.01847 12.2783 2.05437C12.3666 2.09026 12.4467 2.14288 12.5143 2.2092C12.5818 2.27552 12.6354 2.35426 12.6719 2.44092C12.7085 2.52758 12.7273 2.62045 12.7273 2.71425V6.28541C12.7273 6.47483 12.6506 6.6565 12.5143 6.79044C12.3779 6.92439 12.1929 6.99963 12 6.99963C11.8071 6.99963 11.6221 6.92439 11.4857 6.79044C11.3494 6.6565 11.2727 6.47483 11.2727 6.28541V2.71425C11.2727 2.62045 11.2915 2.52758 11.3281 2.44092C11.3646 2.35426 11.4182 2.27552 11.4857 2.2092C11.5533 2.14288 11.6334 2.09026 11.7217 2.05437C11.8099 2.01847 11.9045 2 12 2ZM9.09092 3.42848C9.2838 3.42848 9.46878 3.50372 9.60517 3.63767C9.74156 3.77161 9.81818 3.95328 9.81818 4.1427V6.28541C9.81818 6.47483 9.74156 6.6565 9.60517 6.79045C9.46878 6.92439 9.28379 6.99964 9.0909 6.99964C8.89802 6.99964 8.71303 6.92439 8.57664 6.79045C8.44025 6.6565 8.36363 6.47483 8.36363 6.28541V4.1427C8.36363 4.04891 8.38244 3.95603 8.41899 3.86938C8.45554 3.78272 8.50911 3.70398 8.57665 3.63766C8.64418 3.57134 8.72436 3.51873 8.8126 3.48284C8.90083 3.44694 8.99541 3.42847 9.09092 3.42848ZM14.9091 3.42848C15.0046 3.42847 15.0992 3.44694 15.1874 3.48284C15.2756 3.51873 15.3558 3.57134 15.4234 3.63766C15.4909 3.70398 15.5445 3.78272 15.581 3.86938C15.6176 3.95603 15.6364 4.04891 15.6364 4.1427V6.28541C15.6364 6.47483 15.5597 6.6565 15.4234 6.79045C15.287 6.92439 15.102 6.99964 14.9091 6.99964C14.7162 6.99964 14.5312 6.92439 14.3948 6.79045C14.2584 6.6565 14.1818 6.47483 14.1818 6.28541V4.1427C14.1818 3.95328 14.2584 3.77161 14.3948 3.63767C14.5312 3.50372 14.7162 3.42848 14.9091 3.42848ZM4.72728 20.5715H19.2727C19.4656 20.5715 19.6506 20.6468 19.787 20.7807C19.9234 20.9147 20 21.0963 20 21.2858C20 21.4752 19.9234 21.6569 19.787 21.7908C19.6506 21.9247 19.4656 22 19.2727 22H4.72728C4.53439 22 4.34941 21.9247 4.21301 21.7908C4.07662 21.6569 4 21.4752 4 21.2858C4 21.0963 4.07662 20.9147 4.21301 20.7807C4.34941 20.6468 4.53439 20.5715 4.72728 20.5715Z" fill="black"/>
</svg>
