<svg width="24" height="24" viewBox="0 0 24 24" fill="none" xmlns="http://www.w3.org/2000/svg">
<path fill-rule="evenodd" clip-rule="evenodd" d="M16.2 6.18179C16.2 6.02749 16.2632 5.8795 16.3757 5.77039C16.4883 5.66127 16.6409 5.59998 16.8 5.59998H19.2C19.3591 5.59998 19.5117 5.66127 19.6243 5.77039C19.7368 5.8795 19.8 6.02749 19.8 6.18179V7.34543H21.6C21.7591 7.34543 21.9117 7.40673 22.0243 7.51584C22.1368 7.62495 22.2 7.77294 22.2 7.92725V11.4182H24V12.5818H22.2V16.0727C22.2 16.227 22.1368 16.375 22.0243 16.4841C21.9117 16.5932 21.7591 16.6545 21.6 16.6545H19.8V17.8182C19.8 17.9725 19.7368 18.1205 19.6243 18.2296C19.5117 18.3387 19.3591 18.4 19.2 18.4H16.8C16.6409 18.4 16.4883 18.3387 16.3757 18.2296C16.2632 18.1205 16.2 17.9725 16.2 17.8182V12.5818H7.8V17.8182C7.8 17.9725 7.73679 18.1205 7.62426 18.2296C7.51174 18.3387 7.35913 18.4 7.2 18.4H4.8C4.64087 18.4 4.48826 18.3387 4.37574 18.2296C4.26321 18.1205 4.2 17.9725 4.2 17.8182V16.6545H2.4C2.24087 16.6545 2.08826 16.5932 1.97574 16.4841C1.86321 16.375 1.8 16.227 1.8 16.0727V12.5818H0V11.4182H1.8V7.92725C1.8 7.77294 1.86321 7.62495 1.97574 7.51584C2.08826 7.40673 2.24087 7.34543 2.4 7.34543H4.2V6.18179C4.2 6.02749 4.26321 5.8795 4.37574 5.77039C4.48826 5.66127 4.64087 5.59998 4.8 5.59998H7.2C7.35913 5.59998 7.51174 5.66127 7.62426 5.77039C7.73679 5.8795 7.8 6.02749 7.8 6.18179V11.4182H16.2V6.18179ZM5.4 17.2363H6.6V6.76361H5.4V17.2363ZM4.2 8.50907H3V15.4909H4.2V8.50907ZM19.8 15.4909V8.50907H21V15.4909H19.8ZM18.6 6.76361V17.2363H17.4V6.76361H18.6Z" fill="black"/>
</svg>
