<svg width="24" height="24" viewBox="0 0 24 24" fill="none" xmlns="http://www.w3.org/2000/svg">
<path d="M2 16V19M12 13V7C12 6.46957 12.2107 5.96086 12.5858 5.58579C12.9609 5.21071 13.4696 5 14 5H18C18.5304 5 19.0391 5.21071 19.4142 5.58579C19.7893 5.96086 20 6.46957 20 7V9M12 13V7C12 6.46957 11.7893 5.96086 11.4142 5.58579C11.0391 5.21071 10.5304 5 10 5H6C5.46957 5 4.96086 5.21071 4.58579 5.58579C4.21071 5.96086 4 6.46957 4 7V9" stroke="black" stroke-width="1.5" stroke-linecap="round" stroke-linejoin="round"/>
<path d="M22 16V19M20 9C19.4696 9 18.9609 9.21071 18.5858 9.58579C18.2107 9.96086 18 10.4696 18 11V13H6V11C6 10.4696 5.78929 9.96086 5.41421 9.58579C5.03914 9.21071 4.53043 9 4 9C3.46957 9 2.96086 9.21071 2.58579 9.58579C2.21071 9.96086 2 10.4696 2 11V17H22V11C22 10.4696 21.7893 9.96086 21.4142 9.58579C21.0391 9.21071 20.5304 9 20 9Z" stroke="black" stroke-width="1.5" stroke-linecap="round" stroke-linejoin="round"/>
</svg>
