<svg width="24" height="24" viewBox="0 0 24 24" fill="none" xmlns="http://www.w3.org/2000/svg">
<path d="M12.0002 4.36084C14.0757 4.36084 14.3347 4.36848 15.149 4.40667C15.9625 4.44487 16.5163 4.57244 17.0037 4.76188C17.5079 4.95591 17.9326 5.21869 18.3573 5.64265C18.7457 6.02451 19.0463 6.48643 19.2381 6.99626C19.4267 7.48285 19.5551 8.03744 19.5933 8.85098C19.6292 9.66528 19.6391 9.92424 19.6391 11.9997C19.6391 14.0752 19.6315 14.3342 19.5933 15.1485C19.5551 15.962 19.4267 16.5158 19.2381 17.0032C19.0468 17.5133 18.7462 17.9753 18.3573 18.3568C17.9753 18.7451 17.5134 19.0457 17.0037 19.2376C16.5171 19.4263 15.9625 19.5546 15.149 19.5928C14.3347 19.6287 14.0757 19.6386 12.0002 19.6386C9.92473 19.6386 9.66577 19.631 8.85147 19.5928C8.03793 19.5546 7.48411 19.4263 6.99674 19.2376C6.48672 19.0462 6.02472 18.7456 5.64313 18.3568C5.25462 17.975 4.95405 17.5131 4.76237 17.0032C4.57293 16.5166 4.44536 15.962 4.40716 15.1485C4.37126 14.3342 4.36133 14.0752 4.36133 11.9997C4.36133 9.92424 4.36897 9.66528 4.40716 8.85098C4.44536 8.03667 4.57293 7.48362 4.76237 6.99626C4.95352 6.48612 5.25416 6.02407 5.64313 5.64265C6.02483 5.254 6.48679 4.95341 6.99674 4.76188C7.48411 4.57244 8.03716 4.44487 8.85147 4.40667C9.66577 4.37077 9.92473 4.36084 12.0002 4.36084ZM12.0002 8.18028C10.9872 8.18028 10.0157 8.58269 9.29946 9.29897C8.58318 10.0153 8.18077 10.9867 8.18077 11.9997C8.18077 13.0127 8.58318 13.9842 9.29946 14.7005C10.0157 15.4168 10.9872 15.8192 12.0002 15.8192C13.0132 15.8192 13.9847 15.4168 14.701 14.7005C15.4173 13.9842 15.8197 13.0127 15.8197 11.9997C15.8197 10.9867 15.4173 10.0153 14.701 9.29897C13.9847 8.58269 13.0132 8.18028 12.0002 8.18028ZM16.9655 7.98931C16.9655 7.73607 16.8649 7.49319 16.6858 7.31412C16.5068 7.13505 16.2639 7.03445 16.0106 7.03445C15.7574 7.03445 15.5145 7.13505 15.3354 7.31412C15.1564 7.49319 15.0558 7.73607 15.0558 7.98931C15.0558 8.24256 15.1564 8.48543 15.3354 8.6645C15.5145 8.84357 15.7574 8.94417 16.0106 8.94417C16.2639 8.94417 16.5068 8.84357 16.6858 8.6645C16.8649 8.48543 16.9655 8.24256 16.9655 7.98931ZM12.0002 9.70806C12.608 9.70806 13.1909 9.9495 13.6207 10.3793C14.0504 10.809 14.2919 11.3919 14.2919 11.9997C14.2919 12.6075 14.0504 13.1904 13.6207 13.6202C13.1909 14.05 12.608 14.2914 12.0002 14.2914C11.3924 14.2914 10.8095 14.05 10.3798 13.6202C9.94999 13.1904 9.70855 12.6075 9.70855 11.9997C9.70855 11.3919 9.94999 10.809 10.3798 10.3793C10.8095 9.9495 11.3924 9.70806 12.0002 9.70806Z" fill="white"/>
</svg>
