<svg width="24" height="24" viewBox="0 0 24 24" fill="none" xmlns="http://www.w3.org/2000/svg">
<path d="M19.7627 7.15379C19.1795 7.41175 18.5611 7.58117 17.9279 7.65643C18.5953 7.25725 19.0949 6.62901 19.3334 5.88879C18.707 6.26157 18.0203 6.52282 17.3045 6.66414C16.8237 6.14972 16.1865 5.80856 15.4918 5.69368C14.7971 5.57881 14.0839 5.69667 13.4631 6.02893C12.8423 6.36119 12.3487 6.88924 12.059 7.53099C11.7693 8.17274 11.6997 8.89223 11.8611 9.57761C10.5908 9.51394 9.34812 9.18384 8.21371 8.60874C7.0793 8.03364 6.07852 7.2264 5.27634 6.23942C4.9924 6.72712 4.84318 7.28153 4.84398 7.84587C4.84398 8.95351 5.40773 9.93205 6.26481 10.505C5.7576 10.489 5.26155 10.352 4.81801 10.1055V10.1452C4.81816 10.8829 5.07343 11.5978 5.54053 12.1688C6.00763 12.7397 6.65782 13.1316 7.38085 13.2779C6.91 13.4055 6.4163 13.4243 5.9371 13.3329C6.14096 13.9679 6.53829 14.5232 7.07346 14.9211C7.60863 15.319 8.25484 15.5396 8.92162 15.552C8.25893 16.0724 7.50016 16.4572 6.68868 16.6842C5.8772 16.9112 5.02894 16.9761 4.19238 16.875C5.65271 17.8142 7.35266 18.3128 9.08891 18.3111C14.9655 18.3111 18.1792 13.4429 18.1792 9.22087C18.1792 9.08337 18.1754 8.94435 18.1693 8.80837C18.7948 8.35628 19.3346 7.79624 19.7635 7.15456L19.7627 7.15379Z" fill="white"/>
</svg>
