<svg width="24" height="24" viewBox="0 0 24 24" fill="none" xmlns="http://www.w3.org/2000/svg">
<path d="M19.7626 7.15391C19.1795 7.41187 18.561 7.58129 17.9278 7.65655C18.5952 7.25737 19.0948 6.62913 19.3333 5.88891C18.7069 6.26169 18.0202 6.52294 17.3044 6.66426C16.8237 6.14984 16.1864 5.80868 15.4917 5.69381C14.797 5.57893 14.0838 5.69679 13.463 6.02905C12.8423 6.36131 12.3486 6.88937 12.0589 7.53112C11.7692 8.17287 11.6996 8.89236 11.861 9.57773C10.5907 9.51407 9.34803 9.18397 8.21362 8.60886C7.07921 8.03376 6.07843 7.22652 5.27625 6.23954C4.9923 6.72724 4.84309 7.28166 4.84389 7.846C4.84389 8.95363 5.40764 9.93218 6.26472 10.5051C5.75751 10.4891 5.26145 10.3521 4.81792 10.1056V10.1453C4.81807 10.883 5.07334 11.5979 5.54044 12.1689C6.00754 12.7399 6.65773 13.1317 7.38076 13.278C6.90991 13.4056 6.41621 13.4244 5.93701 13.333C6.14087 13.968 6.5382 14.5233 7.07337 14.9212C7.60854 15.3191 8.25475 15.5397 8.92153 15.5521C8.25884 16.0726 7.50007 16.4573 6.68859 16.6843C5.87711 16.9113 5.02885 16.9762 4.19229 16.8752C5.65262 17.8143 7.35257 18.3129 9.08882 18.3113C14.9654 18.3113 18.1791 13.443 18.1791 9.221C18.1791 9.0835 18.1753 8.94447 18.1692 8.8085C18.7947 8.3564 19.3346 7.79636 19.7634 7.15468L19.7626 7.15391Z" fill="black"/>
</svg>
